# xmcd
#
# Track frame offsets:
#	150
#	12122
#	20685
#	35552
#	47145
#	60377
#	70505
#	82207
#	97720
#	109700
#	120655
#	128797
#	139127
#	149607
#	163322
#	175465
#
# Disc length: 2556 seconds
#
# Revision: 5
# Processed by: cddbd v1.5.2PL0 Copyright (c) Steve Scherf et al.
# Submitted via: VUPlayer 2.49
#
DISCID=df09fa10
DTITLE=Various Artist - Best of Country Songs
DYEAR=1900
DGENRE=Country
TTITLE0=Donna Fargo - U.S. of America
TTITLE1=Waylon Jennings - Abilene
TTITLE2=Willie Nelson - So Will You My Love
TTITLE3=Doc Watson - Tom Dooley
TTITLE4=Alabama - Patches
TTITLE5=Johnny Cash - There You Go
TTITLE6=Billie Jo Spears - Try A Little Kindness
TTITLE7=The Oak Ridge Boys - Father Along
TTITLE8=Johnny Cash - You're the Nearest Thing To Heaven
TTITLE9=Don Williams - Spend Some Time with Me
TTITLE10=Willie Nelson - You Wouldn't Cross the Street To Say Goodbye
TTITLE11=Freddy Fender - Before the Next Teardrop Falls
TTITLE12=Kenny Rogers - We All Got To Help Each Other
TTITLE13=Jerry Lee Lewis - Cold Cold Heart
TTITLE14=Waylon Jennings - Don't Think Twice
TTITLE15=The Everly Brothers - I'm Here To Get My Baby Out of Jail
EXTD=
EXTT0=
EXTT1=
EXTT2=
EXTT3=
EXTT4=
EXTT5=
EXTT6=
EXTT7=
EXTT8=
EXTT9=
EXTT10=
EXTT11=
EXTT12=
EXTT13=
EXTT14=
EXTT15=
PLAYORDER=
